<svg version="1.1" xmlns="http://www.w3.org/2000/svg" width="32" height="32" viewBox="0 0 32 32"><title>icon-search</title><path d="M29.754 29.652l-7.676-9.159c2.129-2.129 3.419-5.031 3.419-8.321 0-6.45-5.225-11.739-11.739-11.739s-11.739 5.225-11.739 11.739c0 6.515 5.289 11.739 11.739 11.739 2.387 0 4.58-0.709 6.45-1.935l7.74 9.095c0.322 0.516 1.161 0.709 1.677 0.194 0.451-0.516 0.451-1.161 0.129-1.612zM4.405 12.172c0-5.16 4.193-9.353 9.353-9.353s9.353 4.193 9.353 9.353-4.193 9.353-9.353 9.353-9.353-4.193-9.353-9.353z"></path></svg>